ISO-10303-21;
HEADER;
FILE_DESCRIPTION (( 'STEP AP214' ),
    '1' );
FILE_NAME ('CUI_P7812B-1000.step',
    '2024-11-21T18:56:37',
    ( '' ),
    ( '' ),
    'SwSTEP 2.0',
    'SolidWorks 2024',
    '' );
FILE_SCHEMA (( 'AUTOMOTIVE_DESIGN' ));
ENDSEC;

DATA;
#1 = EDGE_CURVE ( 'NONE', #243, #824, #740, .T. ) ;
#2 = LINE ( 'NONE', #492, #327 ) ;
#3 = PLANE ( 'NONE',  #465 ) ;
#4 = EDGE_LOOP ( 'NONE', ( #347, #453, #208, #779 ) ) ;
#5 = LINE ( 'NONE', #849, #15 ) ;
#6 = CARTESIAN_POINT ( 'NONE',  ( 0.2047244094488189226, -1.365923996832130223E-17, 0.000000000000000000 ) ) ;
#7 = ORIENTED_EDGE ( 'NONE', *, *, #412, .F. ) ;
#8 = PRODUCT_CONTEXT ( 'NONE', #685, 'mechanical' ) ;
#9 = DIRECTION ( 'NONE',  ( 0.000000000000000000, 0.000000000000000000, -1.000000000000000000 ) ) ;
#10 = CARTESIAN_POINT ( 'NONE',  ( -0.1147637795275590622, -7.381418798421771841E-18, 0.06003937007874016185 ) ) ;
#11 = VECTOR ( 'NONE', #201, 39.37007874015748143 ) ;
#12 = ORIENTED_EDGE ( 'NONE', *, *, #110, .T. ) ;
#13 = EDGE_CURVE ( 'NONE', #564, #819, #786, .T. ) ;
#14 = CARTESIAN_POINT ( 'NONE',  ( 0.000000000000000000, 0.000000000000000000, 0.000000000000000000 ) ) ;
#15 = VECTOR ( 'NONE', #70, 39.37007874015748143 ) ;
#16 = VERTEX_POINT ( 'NONE', #671 ) ;
#17 = COLOUR_RGB ( '',0.7921568627450980005, 0.8196078431372548767, 0.9333333333333333481 ) ;
#18 = CARTESIAN_POINT ( 'NONE',  ( -0.1696850393700787274, 0.08759842519685039075, 0.1496062992125984370 ) ) ;
#19 = DIRECTION ( 'NONE',  ( 0.000000000000000000, 0.000000000000000000, 1.000000000000000000 ) ) ;
#20 = VERTEX_POINT ( 'NONE', #729 ) ;
#21 = ADVANCED_FACE ( 'NONE', ( #388 ), #325, .T. ) ;
#22 = LINE ( 'NONE', #18, #676 ) ;
#23 = LINE ( 'NONE', #724, #30 ) ;
#24 = CARTESIAN_POINT ( 'NONE',  ( -0.01476377952755905665, -7.381418798421771841E-18, 0.06003937007874016185 ) ) ;
#25 = EDGE_LOOP ( 'NONE', ( #625, #84 ) ) ;
#26 = EDGE_CURVE ( 'NONE', #782, #861, #169, .T. ) ;
#27 = LINE ( 'NONE', #526, #760 ) ;
#28 = DIRECTION ( 'NONE',  ( 2.312964634635739999E-16, -1.000000000000000000, 0.000000000000000000 ) ) ;
#29 = ORIENTED_EDGE ( 'NONE', *, *, #373, .F. ) ;
#30 = VECTOR ( 'NONE', #794, 39.37007874015748143 ) ;
#31 = VECTOR ( 'NONE', #244, 39.37007874015748143 ) ;
#32 = CARTESIAN_POINT ( 'NONE',  ( -0.08523622047244096278, -5.482254442052560096E-18, 0.06003937007874016185 ) ) ;
#33 = ADVANCED_FACE ( 'NONE', ( #179 ), #583, .T. ) ;
#34 = CARTESIAN_POINT ( 'NONE',  ( 0.2047244094488189226, -0.01968503937007873988, 0.000000000000000000 ) ) ;
#35 = ORIENTED_EDGE ( 'NONE', *, *, #629, .T. ) ;
#36 = VERTEX_POINT ( 'NONE', #436 ) ;
#37 = CARTESIAN_POINT ( 'NONE',  ( -0.01476377952755905665, -7.381418798421771841E-18, 0.06003937007874016185 ) ) ;
#38 = DIRECTION ( 'NONE',  ( 0.000000000000000000, 0.000000000000000000, -1.000000000000000000 ) ) ;
#39 = CARTESIAN_POINT ( 'NONE',  ( -0.1147637795275590622, -7.381418798421771841E-18, 0.05019685039370079538 ) ) ;
#40 = ORIENTED_EDGE ( 'NONE', *, *, #512, .F. ) ;
#41 =( NAMED_UNIT ( * ) SI_UNIT ( $, .STERADIAN. ) SOLID_ANGLE_UNIT ( ) );
#42 = DIRECTION ( 'NONE',  ( 1.000000000000000000, 1.206764157201260003E-16, 0.000000000000000000 ) ) ;
#43 = ORIENTED_EDGE ( 'NONE', *, *, #26, .F. ) ;
#44 = ADVANCED_FACE ( 'NONE', ( #664 ), #721, .T. ) ;
#45 = ORIENTED_EDGE ( 'NONE', *, *, #571, .T. ) ;
#46 = COLOUR_RGB ( '',0.7921568627450980005, 0.8196078431372548767, 0.9333333333333333481 ) ;
#47 =( NAMED_UNIT ( * ) PLANE_ANGLE_UNIT ( ) SI_UNIT ( $, .RADIAN. ) );
#48 = AXIS2_PLACEMENT_3D ( 'NONE', #777, #766, #844 ) ;
#49 = SURFACE_SIDE_STYLE ('',( #616 ) ) ;
#50 = CARTESIAN_POINT ( 'NONE',  ( -0.1147637795275590622, -7.381418798421771841E-18, 0.06003937007874016185 ) ) ;
#51 = ORIENTED_EDGE ( 'NONE', *, *, #683, .T. ) ;
#52 = LENGTH_MEASURE_WITH_UNIT ( LENGTH_MEASURE( 0.02539999999999999897 ), #611 );
#53 = CARTESIAN_POINT ( 'NONE',  ( -0.1147637795275590622, -7.381418798421771841E-18, 0.05019685039370079538 ) ) ;
#54 = CARTESIAN_POINT ( 'NONE',  ( -0.2283464566929133688, 0.3818897637795276578, 0.1496062992125984370 ) ) ;
#55 = VERTEX_POINT ( 'NONE', #164 ) ;
#56 = CARTESIAN_POINT ( 'NONE',  ( -0.1303149606299212893, 0.08759842519685039075, 0.1496062992125984370 ) ) ;
#57 = CARTESIAN_POINT ( 'NONE',  ( 0.01476377952755905665, -0.1811023622047244208, 0.06003937007874016185 ) ) ;
#58 = CARTESIAN_POINT ( 'NONE',  ( -0.2283464566929133688, -0.01968503937007873988, 0.1496062992125984370 ) ) ;
#59 = VECTOR ( 'NONE', #111, 39.37007874015748143 ) ;
#60 = ORIENTED_EDGE ( 'NONE', *, *, #770, .T. ) ;
#61 = AXIS2_PLACEMENT_3D ( 'NONE', #242, #28, #868 ) ;
#62 = DIRECTION ( 'NONE',  ( 1.000000000000000000, 1.206764157201260003E-16, 0.000000000000000000 ) ) ;
#63 = ADVANCED_FACE ( 'NONE', ( #522 ), #375, .T. ) ;
#64 = VECTOR ( 'NONE', #578, 39.37007874015748143 ) ;
#65 = LINE ( 'NONE', #189, #802 ) ;
#66 = ORIENTED_EDGE ( 'NONE', *, *, #130, .T. ) ;
#67 = CARTESIAN_POINT ( 'NONE',  ( -0.1499999999999999944, 0.08759842519685039075, 0.1492125984251968518 ) ) ;
#68 = CARTESIAN_POINT ( 'NONE',  ( -0.2047244094488189226, -0.01968503937007873988, -0.1496062992125984370 ) ) ;
#69 = ORIENTED_EDGE ( 'NONE', *, *, #1, .T. ) ;
#70 = DIRECTION ( 'NONE',  ( 0.000000000000000000, 0.000000000000000000, 1.000000000000000000 ) ) ;
#71 = CARTESIAN_POINT ( 'NONE',  ( -0.01476377952755905665, -7.381418798421771841E-18, 0.05019685039370079538 ) ) ;
#72 = ORIENTED_EDGE ( 'NONE', *, *, #447, .F. ) ;
#73 = EDGE_CURVE ( 'NONE', #576, #262, #246, .T. ) ;
#74 = CARTESIAN_POINT ( 'NONE',  ( -0.1147637795275590622, -7.381418798421771841E-18, 0.06003937007874016185 ) ) ;
#75 = DIRECTION ( 'NONE',  ( -1.000000000000000000, -1.206764157201260003E-16, 0.000000000000000000 ) ) ;
#76 = UNCERTAINTY_MEASURE_WITH_UNIT (LENGTH_MEASURE( 1.000000000000000082E-05 ), #396, 'distance_accuracy_value', 'NONE');
#77 = AXIS2_PLACEMENT_3D ( 'NONE', #67, #488, #626 ) ;
#78 = EDGE_LOOP ( 'NONE', ( #846, #827, #69, #215 ) ) ;
#79 = CARTESIAN_POINT ( 'NONE',  ( -3.675131830041610067E-18, 0.1814113202217436938, -0.1496062992125984370 ) ) ;
#80 = SURFACE_SIDE_STYLE ('',( #145 ) ) ;
#81 = ORIENTED_EDGE ( 'NONE', *, *, #796, .T. ) ;
#82 = DIRECTION ( 'NONE',  ( -2.176907891421880161E-16, 1.000000000000000000, 0.000000000000000000 ) ) ;
#83 = ADVANCED_FACE ( 'NONE', ( #372 ), #513, .T. ) ;
#84 = ORIENTED_EDGE ( 'NONE', *, *, #738, .F. ) ;
#85 = DIRECTION ( 'NONE',  ( 1.000000000000000000, 0.000000000000000000, 0.000000000000000000 ) ) ;
#86 = DIRECTION ( 'NONE',  ( 0.000000000000000000, 0.000000000000000000, 1.000000000000000000 ) ) ;
#87 = ADVANCED_FACE ( 'NONE', ( #172 ), #95, .F. ) ;
#88 = ORIENTED_EDGE ( 'NONE', *, *, #811, .F. ) ;
#89 = LINE ( 'NONE', #859, #147 ) ;
#90 = APPLICATION_CONTEXT ( 'automotive_design' ) ;
#91 = CARTESIAN_POINT ( 'NONE',  ( -0.1000000000000000056, -6.431836620237165969E-18, 0.05511811023622047168 ) ) ;
#92 = DIRECTION ( 'NONE',  ( -1.000000000000000000, -6.431836620237159960E-17, 0.000000000000000000 ) ) ;
#93 = EDGE_CURVE ( 'NONE', #606, #16, #530, .T. ) ;
#94 = CARTESIAN_POINT ( 'NONE',  ( 0.2047244094488189226, -1.316753953749338653E-17, -0.1496062992125984370 ) ) ;
#95 = CYLINDRICAL_SURFACE ( 'NONE', #746, 0.01968503937007872254 ) ;
#96 = EDGE_LOOP ( 'NONE', ( #532, #550, #401, #902 ) ) ;
#97 = ADVANCED_FACE ( 'NONE', ( #736 ), #439, .T. ) ;
#98 = DIRECTION ( 'NONE',  ( 0.000000000000000000, 0.000000000000000000, 1.000000000000000000 ) ) ;
#99 = DIRECTION ( 'NONE',  ( 2.220446049250320181E-15, 1.000000000000000000, 0.000000000000000000 ) ) ;
#100 = CARTESIAN_POINT ( 'NONE',  ( 0.1147637795275590622, -5.482254442052560096E-18, 0.05019685039370079538 ) ) ;
#101 = ORIENTED_EDGE ( 'NONE', *, *, #412, .T. ) ;
#102 = VECTOR ( 'NONE', #759, 39.37007874015748143 ) ;
#103 = VECTOR ( 'NONE', #200, 39.37007874015748143 ) ;
#104 = CARTESIAN_POINT ( 'NONE',  ( -0.2283464566929133688, 0.3818897637795276578, -0.1496062992125984370 ) ) ;
#105 = CARTESIAN_POINT ( 'NONE',  ( 0.1147637795275590622, -0.1811023622047244208, 0.06003937007874016185 ) ) ;
#106 = DIRECTION ( 'NONE',  ( 0.000000000000000000, 0.000000000000000000, 1.000000000000000000 ) ) ;
#107 = VERTEX_POINT ( 'NONE', #400 ) ;
#108 = LINE ( 'NONE', #56, #531 ) ;
#109 = LINE ( 'NONE', #374, #548 ) ;
#110 = EDGE_CURVE ( 'NONE', #243, #731, #686, .T. ) ;
#111 = DIRECTION ( 'NONE',  ( 0.000000000000000000, 0.000000000000000000, -1.000000000000000000 ) ) ;
#112 = ORIENTED_EDGE ( 'NONE', *, *, #93, .T. ) ;
#113 =( LENGTH_UNIT ( ) NAMED_UNIT ( * ) SI_UNIT ( $, .METRE. ) );
#114 =( LENGTH_UNIT ( ) NAMED_UNIT ( * ) SI_UNIT ( $, .METRE. ) );
#115 = LINE ( 'NONE', #539, #203 ) ;
#116 = EDGE_CURVE ( 'NONE', #824, #236, #392, .T. ) ;
#117 = ORIENTED_EDGE ( 'NONE', *, *, #210, .F. ) ;
#118 = AXIS2_PLACEMENT_3D ( 'NONE', #590, #106, #668 ) ;
#119 = DIRECTION ( 'NONE',  ( 6.431836620237159960E-17, -1.000000000000000000, 0.000000000000000000 ) ) ;
#120 = VECTOR ( 'NONE', #9, 39.37007874015748143 ) ;
#121 = FACE_OUTER_BOUND ( 'NONE', #360, .T. ) ;
#122 = CARTESIAN_POINT ( 'NONE',  ( -3.675131830041610067E-18, 0.1814113202217436938, 0.1496062992125984370 ) ) ;
#123 = ORIENTED_EDGE ( 'NONE', *, *, #830, .F. ) ;
#124 = EDGE_CURVE ( 'NONE', #262, #417, #823, .T. ) ;
#125 = DIRECTION ( 'NONE',  ( -1.000000000000000000, 0.000000000000000000, 0.000000000000000000 ) ) ;
#126 = DIRECTION ( 'NONE',  ( -1.206764157201260003E-16, 1.000000000000000000, 0.000000000000000000 ) ) ;
#127 = LINE ( 'NONE', #624, #496 ) ;
#128 = ORIENTED_EDGE ( 'NONE', *, *, #858, .F. ) ;
#129 = CARTESIAN_POINT ( 'NONE',  ( 0.2283464566929133688, 0.3818897637795276578, 0.000000000000000000 ) ) ;
#130 = EDGE_CURVE ( 'NONE', #745, #268, #194, .T. ) ;
#131 = CARTESIAN_POINT ( 'NONE',  ( -0.1147637795275590622, -0.1811023622047244208, 0.05019685039370079538 ) ) ;
#132 = ORIENTED_EDGE ( 'NONE', *, *, #403, .F. ) ;
#133 = VECTOR ( 'NONE', #544, 39.37007874015748143 ) ;
#134 = AXIS2_PLACEMENT_3D ( 'NONE', #14, #297, #232 ) ;
#135 = CARTESIAN_POINT ( 'NONE',  ( 0.1147637795275590622, -5.482254442052560096E-18, 0.05019685039370079538 ) ) ;
#136 = ORIENTED_EDGE ( 'NONE', *, *, #722, .T. ) ;
#137 = CARTESIAN_POINT ( 'NONE',  ( -0.2283464566929133688, -0.01968503937007873988, 0.1496062992125984370 ) ) ;
#138 = FACE_OUTER_BOUND ( 'NONE', #96, .T. ) ;
#139 = EDGE_CURVE ( 'NONE', #765, #419, #885, .T. ) ;
#140 = VERTEX_POINT ( 'NONE', #267 ) ;
#141 = DIRECTION ( 'NONE',  ( 0.000000000000000000, 0.000000000000000000, -1.000000000000000000 ) ) ;
#142 = ORIENTED_EDGE ( 'NONE', *, *, #229, .F. ) ;
#143 = VECTOR ( 'NONE', #808, 39.37007874015748143 ) ;
#144 = DIRECTION ( 'NONE',  ( 1.000000000000000000, 6.431836620237159960E-17, 0.000000000000000000 ) ) ;
#145 = SURFACE_STYLE_FILL_AREA ( #282 ) ;
#146 = VECTOR ( 'NONE', #241, 39.37007874015748143 ) ;
#147 = VECTOR ( 'NONE', #520, 39.37007874015748143 ) ;
#148 = ORIENTED_EDGE ( 'NONE', *, *, #216, .F. ) ;
#149 = EDGE_CURVE ( 'NONE', #731, #553, #397, .T. ) ;
#150 = LINE ( 'NONE', #711, #281 ) ;
#151 = ORIENTED_EDGE ( 'NONE', *, *, #73, .F. ) ;
#152 = LINE ( 'NONE', #318, #395 ) ;
#153 = CARTESIAN_POINT ( 'NONE',  ( -0.08523622047244096278, -5.482254442052560096E-18, 0.06003937007874016185 ) ) ;
#154 = ORIENTED_EDGE ( 'NONE', *, *, #116, .F. ) ;
#155 = SURFACE_STYLE_FILL_AREA ( #783 ) ;
#156 = CARTESIAN_POINT ( 'NONE',  ( 0.08523622047244096278, -0.1811023622047244208, 0.06003937007874016185 ) ) ;
#157 = EDGE_CURVE ( 'NONE', #600, #55, #65, .T. ) ;
#158 = MECHANICAL_DESIGN_GEOMETRIC_PRESENTATION_REPRESENTATION (  '', ( #450 ), #353 ) ;
#159 = CARTESIAN_POINT ( 'NONE',  ( 0.1000000000000000056, -0.1811023622047244208, 0.05511811023622047168 ) ) ;
#160 = VECTOR ( 'NONE', #277, 39.37007874015748143 ) ;
#161 = AXIS2_PLACEMENT_3D ( 'NONE', #386, #670, #125 ) ;
#162 = CARTESIAN_POINT ( 'NONE',  ( -0.2047244094488189226, -0.01968503937007873988, 0.000000000000000000 ) ) ;
#163 = DIRECTION ( 'NONE',  ( 0.000000000000000000, 0.000000000000000000, -1.000000000000000000 ) ) ;
#164 = CARTESIAN_POINT ( 'NONE',  ( 0.2047244094488189226, -0.01968503937007873988, 0.1496062992125984370 ) ) ;
#165 = EDGE_CURVE ( 'NONE', #307, #765, #695, .T. ) ;
#166 = ORIENTED_EDGE ( 'NONE', *, *, #710, .F. ) ;
#167 = DIRECTION ( 'NONE',  ( 0.000000000000000000, 0.000000000000000000, -1.000000000000000000 ) ) ;
#168 = PLANE ( 'NONE',  #894 ) ;
#169 = LINE ( 'NONE', #594, #249 ) ;
#170 = ORIENTED_EDGE ( 'NONE', *, *, #389, .T. ) ;
#171 = FACE_OUTER_BOUND ( 'NONE', #505, .T. ) ;
#172 = FACE_OUTER_BOUND ( 'NONE', #247, .T. ) ;
#173 = ORIENTED_EDGE ( 'NONE', *, *, #333, .T. ) ;
#174 = VECTOR ( 'NONE', #838, 39.37007874015748143 ) ;
#175 = CARTESIAN_POINT ( 'NONE',  ( 0.1000000000000000056, -6.431836620237165969E-18, 0.05511811023622047168 ) ) ;
#176 = EDGE_CURVE ( 'NONE', #819, #762, #472, .T. ) ;
#177 = PRODUCT_DEFINITION_FORMATION_WITH_SPECIFIED_SOURCE ( 'ANY', '', #263, .NOT_KNOWN. ) ;
#178 = LINE ( 'NONE', #652, #821 ) ;
#179 = FACE_OUTER_BOUND ( 'NONE', #863, .T. ) ;
#180 = ORIENTED_EDGE ( 'NONE', *, *, #216, .T. ) ;
#181 =( CONVERSION_BASED_UNIT ( 'INCH', #810 ) LENGTH_UNIT ( ) NAMED_UNIT ( #182 ) );
#182 = DIMENSIONAL_EXPONENTS ( 1.000000000000000000, 0.000000000000000000, 0.000000000000000000, 0.000000000000000000, 0.000000000000000000, 0.000000000000000000, 0.000000000000000000 ) ;
#183 = EDGE_CURVE ( 'NONE', #350, #36, #127, .T. ) ;
#184 = CARTESIAN_POINT ( 'NONE',  ( -0.1499999999999999944, 0.08759842519685039075, 0.1496062992125984370 ) ) ;
#185 = LINE ( 'NONE', #460, #774 ) ;
#186 = EDGE_LOOP ( 'NONE', ( #431, #890, #336, #704 ) ) ;
#187 =( NAMED_UNIT ( * ) SI_UNIT ( $, .STERADIAN. ) SOLID_ANGLE_UNIT ( ) );
#188 = PLANE ( 'NONE',  #706 ) ;
#189 = CARTESIAN_POINT ( 'NONE',  ( 0.2047244094488189226, -0.01968503937007873988, 0.1496062992125984370 ) ) ;
#190 = EDGE_CURVE ( 'NONE', #467, #819, #895, .T. ) ;
#191 = ORIENTED_EDGE ( 'NONE', *, *, #358, .T. ) ;
#192 = AXIS2_PLACEMENT_3D ( 'NONE', #832, #486, #764 ) ;
#193 =( CONVERSION_BASED_UNIT ( 'INCH', #197 ) LENGTH_UNIT ( ) NAMED_UNIT ( #445 ) );
#194 = LINE ( 'NONE', #135, #294 ) ;
#195 = EDGE_CURVE ( 'NONE', #476, #350, #904, .T. ) ;
#196 = ORIENTED_EDGE ( 'NONE', *, *, #629, .F. ) ;
#197 = LENGTH_MEASURE_WITH_UNIT ( LENGTH_MEASURE( 0.02539999999999999897 ), #114 );
#198 = FACE_OUTER_BOUND ( 'NONE', #755, .T. ) ;
#199 = ORIENTED_EDGE ( 'NONE', *, *, #333, .F. ) ;
#200 = DIRECTION ( 'NONE',  ( 1.206764157201260003E-16, -1.000000000000000000, 0.000000000000000000 ) ) ;
#201 = DIRECTION ( 'NONE',  ( 1.000000000000000000, 6.431836620237159960E-17, 0.000000000000000000 ) ) ;
#202 = VERTEX_POINT ( 'NONE', #900 ) ;
#203 = VECTOR ( 'NONE', #818, 39.37007874015748143 ) ;
#204 = ADVANCED_FACE ( 'NONE', ( #198 ), #405, .T. ) ;
#205 = CARTESIAN_POINT ( 'NONE',  ( -0.01476377952755905665, -7.381418798421771841E-18, 0.06003937007874016185 ) ) ;
#206 = AXIS2_PLACEMENT_3D ( 'NONE', #880, #543, #893 ) ;
#207 = CARTESIAN_POINT ( 'NONE',  ( 0.08523622047244096278, -0.1811023622047244208, 0.06003937007874016185 ) ) ;
#208 = ORIENTED_EDGE ( 'NONE', *, *, #285, .F. ) ;
#209 = DIRECTION ( 'NONE',  ( -2.176907891421880161E-16, -1.000000000000000000, 0.000000000000000000 ) ) ;
#210 = EDGE_CURVE ( 'NONE', #326, #202, #257, .T. ) ;
#211 =( LENGTH_UNIT ( ) NAMED_UNIT ( * ) SI_UNIT ( $, .METRE. ) );
#212 = EDGE_LOOP ( 'NONE', ( #547, #390, #231, #487 ) ) ;
#213 = LINE ( 'NONE', #640, #160 ) ;
#214 = FACE_OUTER_BOUND ( 'NONE', #639, .T. ) ;
#215 = ORIENTED_EDGE ( 'NONE', *, *, #429, .F. ) ;
#216 = EDGE_CURVE ( 'NONE', #140, #243, #614, .T. ) ;
#217 = CLOSED_SHELL ( 'NONE', ( #87, #537, #533, #259, #440, #784, #853, #655, #63, #255, #650, #223, #617 ) ) ;
#218 = AXIS2_PLACEMENT_3D ( 'NONE', #100, #872, #653 ) ;
#219 = CARTESIAN_POINT ( 'NONE',  ( 0.000000000000000000, 0.000000000000000000, 0.1496062992125984370 ) ) ;
#220 = PLANE ( 'NONE',  #619 ) ;
#221 = VECTOR ( 'NONE', #592, 39.37007874015748143 ) ;
#222 = ORIENTED_EDGE ( 'NONE', *, *, #403, .T. ) ;
#223 = ADVANCED_FACE ( 'NONE', ( #261, #349 ), #627, .T. ) ;
#224 = LINE ( 'NONE', #288, #822 ) ;
#225 = DIRECTION ( 'NONE',  ( 2.176907891421880161E-16, 1.000000000000000000, 0.000000000000000000 ) ) ;
#226 = ORIENTED_EDGE ( 'NONE', *, *, #195, .T. ) ;
#227 = EDGE_LOOP ( 'NONE', ( #132, #869, #457, #43 ) ) ;
#228 = FACE_OUTER_BOUND ( 'NONE', #296, .T. ) ;
#229 = EDGE_CURVE ( 'NONE', #473, #307, #185, .T. ) ;
#230 = FACE_OUTER_BOUND ( 'NONE', #331, .T. ) ;
#231 = ORIENTED_EDGE ( 'NONE', *, *, #696, .T. ) ;
#232 = DIRECTION ( 'NONE',  ( 1.000000000000000000, 0.000000000000000000, 0.000000000000000000 ) ) ;
#233 =( LENGTH_UNIT ( ) NAMED_UNIT ( * ) SI_UNIT ( $, .METRE. ) );
#234 = EDGE_CURVE ( 'NONE', #20, #628, #115, .T. ) ;
#235 = CARTESIAN_POINT ( 'NONE',  ( 0.000000000000000000, -6.431836620237165969E-18, 0.05511811023622047168 ) ) ;
#236 = VERTEX_POINT ( 'NONE', #748 ) ;
#237 = VECTOR ( 'NONE', #742, 39.37007874015748143 ) ;
#238 = ORIENTED_EDGE ( 'NONE', *, *, #373, .T. ) ;
#239 = PRESENTATION_LAYER_ASSIGNMENT (  '', '', ( #344 ) ) ;
#240 = CARTESIAN_POINT ( 'NONE',  ( 0.2283464566929133688, -0.01968503937007873988, 0.1496062992125984370 ) ) ;
#241 = DIRECTION ( 'NONE',  ( 0.000000000000000000, 0.000000000000000000, 1.000000000000000000 ) ) ;
#242 = CARTESIAN_POINT ( 'NONE',  ( -0.2283464566929133688, -0.01968503937007873988, 0.000000000000000000 ) ) ;
#243 = VERTEX_POINT ( 'NONE', #54 ) ;
#244 = DIRECTION ( 'NONE',  ( 1.206764157201260003E-16, -1.000000000000000000, 0.000000000000000000 ) ) ;
#245 = DIRECTION ( 'NONE',  ( 6.431836620237159960E-17, -1.000000000000000000, 0.000000000000000000 ) ) ;
#246 = LINE ( 'NONE', #799, #364 ) ;
#247 = EDGE_LOOP ( 'NONE', ( #800, #654, #678, #500 ) ) ;
#248 = DIRECTION ( 'NONE',  ( 1.206764157201260003E-16, -1.000000000000000000, 0.000000000000000000 ) ) ;
#249 = VECTOR ( 'NONE', #306, 39.37007874015748143 ) ;
#250 = DIRECTION ( 'NONE',  ( 6.431836620237159960E-17, -1.000000000000000000, 0.000000000000000000 ) ) ;
#251 = DIRECTION ( 'NONE',  ( -1.000000000000000000, -1.206764157201260003E-16, 0.000000000000000000 ) ) ;
#252 = ORIENTED_EDGE ( 'NONE', *, *, #157, .T. ) ;
#253 = MANIFOLD_SOLID_BREP ( 'Imported3', #542 ) ;
#254 = AXIS2_PLACEMENT_3D ( 'NONE', #91, #245, #521 ) ;
#255 = ADVANCED_FACE ( 'NONE', ( #214 ), #889, .T. ) ;
#256 = CARTESIAN_POINT ( 'NONE',  ( 0.1147637795275590622, -5.482254442052560096E-18, 0.06003937007874016185 ) ) ;
#257 = LINE ( 'NONE', #50, #11 ) ;
#258 = ORIENTED_EDGE ( 'NONE', *, *, #599, .T. ) ;
#259 = ADVANCED_FACE ( 'NONE', ( #503 ), #220, .T. ) ;
#260 = SURFACE_STYLE_USAGE ( .BOTH. , #49 ) ;
#261 = FACE_OUTER_BOUND ( 'NONE', #610, .T. ) ;
#262 = VERTEX_POINT ( 'NONE', #71 ) ;
#263 = PRODUCT ( 'CUI_P7812B-1000', 'CUI_P7812B-1000', '', ( #8 ) ) ;
#264 = DIRECTION ( 'NONE',  ( 0.000000000000000000, 0.000000000000000000, -1.000000000000000000 ) ) ;
#265 = ADVANCED_FACE ( 'NONE', ( #138 ), #3, .T. ) ;
#266 = CLOSED_SHELL ( 'NONE', ( #21, #518, #346, #265, #637, #561 ) ) ;
#267 = CARTESIAN_POINT ( 'NONE',  ( 0.2283464566929133688, 0.3818897637795276578, 0.1496062992125984370 ) ) ;
#268 = VERTEX_POINT ( 'NONE', #638 ) ;
#269 = VECTOR ( 'NONE', #163, 39.37007874015748143 ) ;
#270 = VECTOR ( 'NONE', #329, 39.37007874015748143 ) ;
#271 = PRESENTATION_STYLE_ASSIGNMENT (( #260 ) ) ;
#272 = CARTESIAN_POINT ( 'NONE',  ( 0.08523622047244096278, -7.381418798421771841E-18, 0.06003937007874016185 ) ) ;
#273 = ORIENTED_EDGE ( 'NONE', *, *, #770, .F. ) ;
#274 = CARTESIAN_POINT ( 'NONE',  ( -0.08523622047244096278, -5.482254442052560096E-18, 0.05019685039370079538 ) ) ;
#275 = DIRECTION ( 'NONE',  ( 1.206764157201260003E-16, -1.000000000000000000, 0.000000000000000000 ) ) ;
#276 = ORIENTED_EDGE ( 'NONE', *, *, #429, .T. ) ;
#277 = DIRECTION ( 'NONE',  ( 0.000000000000000000, 0.000000000000000000, 1.000000000000000000 ) ) ;
#278 = ORIENTED_EDGE ( 'NONE', *, *, #478, .T. ) ;
#279 = CIRCLE ( 'NONE', #192, 0.01968503937007872254 ) ;
#280 = DIRECTION ( 'NONE',  ( 0.000000000000000000, 0.000000000000000000, -1.000000000000000000 ) ) ;
#281 = VECTOR ( 'NONE', #502, 39.37007874015748143 ) ;
#282 = FILL_AREA_STYLE ('',( #767 ) ) ;
#283 = ORIENTED_EDGE ( 'NONE', *, *, #545, .F. ) ;
#284 = DIRECTION ( 'NONE',  ( 1.000000000000000000, 0.000000000000000000, 0.000000000000000000 ) ) ;
#285 = EDGE_CURVE ( 'NONE', #36, #427, #575, .T. ) ;
#286 = UNCERTAINTY_MEASURE_WITH_UNIT (LENGTH_MEASURE( 1.000000000000000082E-05 ), #727, 'distance_accuracy_value', 'NONE');
#287 = ORIENTED_EDGE ( 'NONE', *, *, #801, .T. ) ;
#288 = CARTESIAN_POINT ( 'NONE',  ( 0.2047244094488189226, -0.01968503937007873988, 0.000000000000000000 ) ) ;
#289 = LINE ( 'NONE', #423, #586 ) ;
#290 = VERTEX_POINT ( 'NONE', #907 ) ;
#291 = AXIS2_PLACEMENT_3D ( 'NONE', #380, #881, #598 ) ;
#292 = DIRECTION ( 'NONE',  ( 0.000000000000000000, -1.000000000000000000, 0.000000000000000000 ) ) ;
#293 = CARTESIAN_POINT ( 'NONE',  ( -0.2047244094488189226, -0.01968503937007873988, 0.000000000000000000 ) ) ;
#294 = VECTOR ( 'NONE', #339, 39.37007874015748143 ) ;
#295 = STYLED_ITEM ( 'NONE', ( #271 ), #554 ) ;
#296 = EDGE_LOOP ( 'NONE', ( #713, #148, #369, #154 ) ) ;
#297 = DIRECTION ( 'NONE',  ( 0.000000000000000000, 0.000000000000000000, 1.000000000000000000 ) ) ;
#298 = AXIS2_PLACEMENT_3D ( 'NONE', #601, #541, #879 ) ;
#299 = ORIENTED_EDGE ( 'NONE', *, *, #679, .T. ) ;
#300 = PLANE ( 'NONE',  #788 ) ;
#301 = CARTESIAN_POINT ( 'NONE',  ( -0.2047244094488189226, -1.316753953749338653E-17, 0.1496062992125984370 ) ) ;
#302 = ORIENTED_EDGE ( 'NONE', *, *, #234, .T. ) ;
#303 = EDGE_CURVE ( 'NONE', #16, #417, #772, .T. ) ;
#304 = DIRECTION ( 'NONE',  ( -2.176907891421880161E-16, -1.000000000000000000, 0.000000000000000000 ) ) ;
#305 = DIRECTION ( 'NONE',  ( -1.000000000000000000, 2.312964634635739999E-16, 0.000000000000000000 ) ) ;
#306 = DIRECTION ( 'NONE',  ( -1.000000000000000000, 2.312964634635739999E-16, 0.000000000000000000 ) ) ;
#307 = VERTEX_POINT ( 'NONE', #557 ) ;
#308 = CARTESIAN_POINT ( 'NONE',  ( 2.185478394931409404E-17, -0.1811023622047244208, 0.05511811023622047168 ) ) ;
#309 = DIRECTION ( 'NONE',  ( -1.000000000000000000, -1.206764157201260003E-16, 0.000000000000000000 ) ) ;
#310 = AXIS2_PLACEMENT_3D ( 'NONE', #785, #309, #507 ) ;
#311 = DIRECTION ( 'NONE',  ( 0.000000000000000000, 0.000000000000000000, -1.000000000000000000 ) ) ;
#312 = VECTOR ( 'NONE', #144, 39.37007874015748143 ) ;
#313 = ORIENTED_EDGE ( 'NONE', *, *, #896, .T. ) ;
#314 = CARTESIAN_POINT ( 'NONE',  ( 0.2283464566929133688, -0.01968503937007873988, -0.1496062992125984370 ) ) ;
#315 = CARTESIAN_POINT ( 'NONE',  ( 0.01476377952755905665, -0.1811023622047244208, 0.05019685039370079538 ) ) ;
#316 = VERTEX_POINT ( 'NONE', #489 ) ;
#317 = ORIENTED_EDGE ( 'NONE', *, *, #683, .F. ) ;
#318 = CARTESIAN_POINT ( 'NONE',  ( -0.08523622047244096278, -5.482254442052560096E-18, 0.06003937007874016185 ) ) ;
#319 = DIRECTION ( 'NONE',  ( 1.000000000000000000, 6.431836620237159960E-17, 0.000000000000000000 ) ) ;
#320 = CARTESIAN_POINT ( 'NONE',  ( -0.2283464566929133688, 0.3818897637795276578, 0.000000000000000000 ) ) ;
#321 = PRODUCT_RELATED_PRODUCT_CATEGORY ( 'part', '', ( #263 ) ) ;
#322 = ORIENTED_EDGE ( 'NONE', *, *, #501, .F. ) ;
#323 = PLANE ( 'NONE',  #298 ) ;
#324 = CARTESIAN_POINT ( 'NONE',  ( -0.2047244094488189226, -1.316753953749338653E-17, 0.1496062992125984370 ) ) ;
#325 = PLANE ( 'NONE',  #291 ) ;
#326 = VERTEX_POINT ( 'NONE', #634 ) ;
#327 = VECTOR ( 'NONE', #209, 39.37007874015748143 ) ;
#328 = PRODUCT_DEFINITION_CONTEXT ( 'detailed design', #90, 'design' ) ;
#329 = DIRECTION ( 'NONE',  ( 0.000000000000000000, 0.000000000000000000, 1.000000000000000000 ) ) ;
#330 = CARTESIAN_POINT ( 'NONE',  ( -0.2283464566929133688, 0.3818897637795276578, -0.1496062992125984370 ) ) ;
#331 = EDGE_LOOP ( 'NONE', ( #905, #644, #857, #299 ) ) ;
#332 = CARTESIAN_POINT ( 'NONE',  ( -0.08523622047244096278, -5.482254442052560096E-18, 0.05019685039370079538 ) ) ;
#333 = EDGE_CURVE ( 'NONE', #107, #467, #289, .T. ) ;
#334 = CARTESIAN_POINT ( 'NONE',  ( -0.01476377952755905665, -7.381418798421771841E-18, 0.05019685039370079538 ) ) ;
#335 = DIRECTION ( 'NONE',  ( 2.220446049250320181E-15, -1.000000000000000000, 0.000000000000000000 ) ) ;
#336 = ORIENTED_EDGE ( 'NONE', *, *, #93, .F. ) ;
#337 = FILL_AREA_STYLE ('',( #402 ) ) ;
#338 = LINE ( 'NONE', #415, #120 ) ;
#339 = DIRECTION ( 'NONE',  ( 1.206764157201260003E-16, -1.000000000000000000, 0.000000000000000000 ) ) ;
#340 = ORIENTED_EDGE ( 'NONE', *, *, #581, .F. ) ;
#341 = VECTOR ( 'NONE', #275, 39.37007874015748143 ) ;
#342 = STYLED_ITEM ( 'NONE', ( #382 ), #854 ) ;
#343 = DIRECTION ( 'NONE',  ( 0.000000000000000000, 0.000000000000000000, -1.000000000000000000 ) ) ;
#344 = STYLED_ITEM ( 'NONE', ( #622 ), #862 ) ;
#345 = CARTESIAN_POINT ( 'NONE',  ( -0.08523622047244096278, -0.1811023622047244208, 0.05019685039370079538 ) ) ;
#346 = ADVANCED_FACE ( 'NONE', ( #708 ), #648, .T. ) ;
#347 = ORIENTED_EDGE ( 'NONE', *, *, #195, .F. ) ;
#348 = FACE_OUTER_BOUND ( 'NONE', #605, .T. ) ;
#349 = FACE_BOUND ( 'NONE', #567, .T. ) ;
#350 = VERTEX_POINT ( 'NONE', #850 ) ;
#351 = CARTESIAN_POINT ( 'NONE',  ( -0.1147637795275590622, -7.381418798421771841E-18, 0.05019685039370079538 ) ) ;
#352 = ORIENTED_EDGE ( 'NONE', *, *, #587, .T. ) ;
#353 =( GEOMETRIC_REPRESENTATION_CONTEXT ( 3 ) GLOBAL_UNCERTAINTY_ASSIGNED_CONTEXT ( ( #768 ) ) GLOBAL_UNIT_ASSIGNED_CONTEXT ( ( #715, #712, #563 ) ) REPRESENTATION_CONTEXT ( 'NONE', 'WORKASPACE' ) );
#354 = FACE_OUTER_BOUND ( 'NONE', #4, .T. ) ;
#355 = AXIS2_PLACEMENT_3D ( 'NONE', #556, #831, #82 ) ;
#356 = SURFACE_STYLE_USAGE ( .BOTH. , #80 ) ;
#357 = ORIENTED_EDGE ( 'NONE', *, *, #801, .F. ) ;
#358 = EDGE_CURVE ( 'NONE', #424, #140, #499, .T. ) ;
#359 = CARTESIAN_POINT ( 'NONE',  ( -0.1499999999999999944, 0.08759842519685039075, 0.1492125984251968518 ) ) ;
#360 = EDGE_LOOP ( 'NONE', ( #278, #142, #414, #196 ) ) ;
#361 = FACE_OUTER_BOUND ( 'NONE', #769, .T. ) ;
#362 = ORIENTED_EDGE ( 'NONE', *, *, #612, .T. ) ;
#363 = APPLICATION_PROTOCOL_DEFINITION ( 'draft international standard', 'automotive_design', 1998, #685 ) ;
#364 = VECTOR ( 'NONE', #92, 39.37007874015748143 ) ;
#365 = CARTESIAN_POINT ( 'NONE',  ( -0.1303149606299212893, 0.08759842519685039075, 0.1492125984251968518 ) ) ;
#366 = VECTOR ( 'NONE', #319, 39.37007874015748143 ) ;
#367 = DIRECTION ( 'NONE',  ( -1.000000000000000000, -6.431836620237159960E-17, 0.000000000000000000 ) ) ;
#368 = MECHANICAL_DESIGN_GEOMETRIC_PRESENTATION_REPRESENTATION (  '', ( #342 ), #604 ) ;
#369 = ORIENTED_EDGE ( 'NONE', *, *, #858, .T. ) ;
#370 = EDGE_CURVE ( 'NONE', #316, #741, #279, .T. ) ;
#371 = PLANE ( 'NONE',  #310 ) ;
#372 = FACE_OUTER_BOUND ( 'NONE', #635, .T. ) ;
#373 = EDGE_CURVE ( 'NONE', #576, #495, #416, .T. ) ;
#374 = CARTESIAN_POINT ( 'NONE',  ( -0.2047244094488189226, -1.316753953749338653E-17, 0.000000000000000000 ) ) ;
#375 = PLANE ( 'NONE',  #61 ) ;
#376 = ORIENTED_EDGE ( 'NONE', *, *, #447, .T. ) ;
#377 = FACE_OUTER_BOUND ( 'NONE', #579, .T. ) ;
#378 = EDGE_CURVE ( 'NONE', #861, #473, #27, .T. ) ;
#379 = LINE ( 'NONE', #798, #366 ) ;
#380 = CARTESIAN_POINT ( 'NONE',  ( -0.1000000000000000056, -0.1811023622047244208, 0.05511811023622047168 ) ) ;
#381 = ORIENTED_EDGE ( 'NONE', *, *, #183, .T. ) ;
#382 = PRESENTATION_STYLE_ASSIGNMENT (( #719 ) ) ;
#383 = LINE ( 'NONE', #443, #776 ) ;
#384 = DIRECTION ( 'NONE',  ( -1.000000000000000000, 0.000000000000000000, 0.000000000000000000 ) ) ;
#385 = VERTEX_POINT ( 'NONE', #875 ) ;
#386 = CARTESIAN_POINT ( 'NONE',  ( -0.1499999999999999944, 0.08759842519685039075, 0.1492125984251968518 ) ) ;
#387 = DIRECTION ( 'NONE',  ( 0.000000000000000000, 0.000000000000000000, -1.000000000000000000 ) ) ;
#388 = FACE_OUTER_BOUND ( 'NONE', #591, .T. ) ;
#389 = EDGE_CURVE ( 'NONE', #757, #290, #379, .T. ) ;
#390 = ORIENTED_EDGE ( 'NONE', *, *, #149, .F. ) ;
#391 = CYLINDRICAL_SURFACE ( 'NONE', #574, 0.01968503937007872254 ) ;
#392 = LINE ( 'NONE', #330, #718 ) ;
#393 = ADVANCED_FACE ( 'NONE', ( #171 ), #371, .T. ) ;
#394 = ORIENTED_EDGE ( 'NONE', *, *, #303, .F. ) ;
#395 = VECTOR ( 'NONE', #647, 39.37007874015748143 ) ;
#396 =( CONVERSION_BASED_UNIT ( 'INCH', #52 ) LENGTH_UNIT ( ) NAMED_UNIT ( #466 ) );
#397 = LINE ( 'NONE', #677, #833 ) ;
#398 = EDGE_LOOP ( 'NONE', ( #117, #873, #199, #357 ) ) ;
#399 = CARTESIAN_POINT ( 'NONE',  ( 0.01476377952755905665, -5.482254442052560096E-18, 0.06003937007874016185 ) ) ;
#400 = CARTESIAN_POINT ( 'NONE',  ( -0.08523622047244096278, -0.1811023622047244208, 0.06003937007874016185 ) ) ;
#401 = ORIENTED_EDGE ( 'NONE', *, *, #190, .F. ) ;
#402 = FILL_AREA_STYLE_COLOUR ( '', #17 ) ;
#403 = EDGE_CURVE ( 'NONE', #424, #782, #657, .T. ) ;
#404 = CARTESIAN_POINT ( 'NONE',  ( -0.2047244094488189226, -0.01968503937007873988, 0.1496062992125984370 ) ) ;
#405 = PLANE ( 'NONE',  #482 ) ;
#406 = ORIENTED_EDGE ( 'NONE', *, *, #190, .T. ) ;
#407 = VECTOR ( 'NONE', #335, 39.37007874015748143 ) ;
#408 = VECTOR ( 'NONE', #636, 39.37007874015748143 ) ;
#409 = MECHANICAL_DESIGN_GEOMETRIC_PRESENTATION_REPRESENTATION (  '', ( #295 ), #498 ) ;
#410 = DIRECTION ( 'NONE',  ( 0.000000000000000000, 0.000000000000000000, -1.000000000000000000 ) ) ;
#411 =( GEOMETRIC_REPRESENTATION_CONTEXT ( 3 ) GLOBAL_UNCERTAINTY_ASSIGNED_CONTEXT ( ( #76 ) ) GLOBAL_UNIT_ASSIGNED_CONTEXT ( ( #396, #680, #41 ) ) REPRESENTATION_CONTEXT ( 'NONE', 'WORKASPACE' ) );
#412 = EDGE_CURVE ( 'NONE', #290, #576, #178, .T. ) ;
#413 = CARTESIAN_POINT ( 'NONE',  ( 0.08523622047244096278, -7.381418798421771841E-18, 0.05019685039370079538 ) ) ;
#414 = ORIENTED_EDGE ( 'NONE', *, *, #459, .F. ) ;
#415 = CARTESIAN_POINT ( 'NONE',  ( 0.08523622047244096278, -0.1811023622047244208, 0.05019685039370079538 ) ) ;
#416 = LINE ( 'NONE', #728, #527 ) ;
#417 = VERTEX_POINT ( 'NONE', #449 ) ;
#418 = LINE ( 'NONE', #497, #468 ) ;
#419 = VERTEX_POINT ( 'NONE', #582 ) ;
#420 = PRODUCT_DEFINITION ( 'UNKNOWN', '', #177, #328 ) ;
#421 = LINE ( 'NONE', #205, #529 ) ;
#422 = AXIS2_PLACEMENT_3D ( 'NONE', #308, #248, #596 ) ;
#423 = CARTESIAN_POINT ( 'NONE',  ( -0.1147637795275590622, -0.1811023622047244208, 0.06003937007874016185 ) ) ;
#424 = VERTEX_POINT ( 'NONE', #588 ) ;
#425 = PLANE ( 'NONE',  #734 ) ;
#426 = CARTESIAN_POINT ( 'NONE',  ( 0.2283464566929133688, 0.3818897637795276578, 0.1496062992125984370 ) ) ;
#427 = VERTEX_POINT ( 'NONE', #156 ) ;
#428 = CARTESIAN_POINT ( 'NONE',  ( 0.2283464566929133688, 0.3818897637795276578, 0.000000000000000000 ) ) ;
#429 = EDGE_CURVE ( 'NONE', #419, #824, #23, .T. ) ;
#430 = DIRECTION ( 'NONE',  ( 1.000000000000000000, 0.000000000000000000, 0.000000000000000000 ) ) ;
#431 = ORIENTED_EDGE ( 'NONE', *, *, #389, .F. ) ;
#432 = CARTESIAN_POINT ( 'NONE',  ( 0.08523622047244096278, -7.381418798421771841E-18, 0.05019685039370079538 ) ) ;
#433 = VECTOR ( 'NONE', #826, 39.37007874015748143 ) ;
#434 = LINE ( 'NONE', #860, #661 ) ;
#435 = CIRCLE ( 'NONE', #77, 0.01968503937007872254 ) ;
#436 = CARTESIAN_POINT ( 'NONE',  ( 0.1147637795275590622, -0.1811023622047244208, 0.06003937007874016185 ) ) ;
#437 = CARTESIAN_POINT ( 'NONE',  ( -0.08523622047244096278, -0.1811023622047244208, 0.05019685039370079538 ) ) ;
#438 = DIRECTION ( 'NONE',  ( 0.000000000000000000, 0.000000000000000000, -1.000000000000000000 ) ) ;
#439 = PLANE ( 'NONE',  #118 ) ;
#440 = ADVANCED_FACE ( 'NONE', ( #805 ), #867, .T. ) ;
#441 = ORIENTED_EDGE ( 'NONE', *, *, #358, .F. ) ;
#442 = LENGTH_MEASURE_WITH_UNIT ( LENGTH_MEASURE( 0.02539999999999999897 ), #233 );
#443 = CARTESIAN_POINT ( 'NONE',  ( 0.01476377952755905665, -0.1811023622047244208, 0.06003937007874016185 ) ) ;
#444 = DIRECTION ( 'NONE',  ( -1.206764157201260003E-16, 1.000000000000000000, 0.000000000000000000 ) ) ;
#445 = DIMENSIONAL_EXPONENTS ( 1.000000000000000000, 0.000000000000000000, 0.000000000000000000, 0.000000000000000000, 0.000000000000000000, 0.000000000000000000, 0.000000000000000000 ) ;
#446 = ORIENTED_EDGE ( 'NONE', *, *, #710, .T. ) ;
#447 = EDGE_CURVE ( 'NONE', #268, #36, #455, .T. ) ;
#448 =( NAMED_UNIT ( * ) PLANE_ANGLE_UNIT ( ) SI_UNIT ( $, .RADIAN. ) );
#449 = CARTESIAN_POINT ( 'NONE',  ( -0.01476377952755905665, -0.1811023622047244208, 0.05019685039370079538 ) ) ;
#450 = STYLED_ITEM ( 'NONE', ( #841 ), #253 ) ;
#451 = DIRECTION ( 'NONE',  ( -1.000000000000000000, -6.431836620237159960E-17, 0.000000000000000000 ) ) ;
#452 = PRESENTATION_LAYER_ASSIGNMENT (  '', '', ( #342 ) ) ;
#453 = ORIENTED_EDGE ( 'NONE', *, *, #830, .T. ) ;
#454 = DIRECTION ( 'NONE',  ( 0.000000000000000000, 0.000000000000000000, -1.000000000000000000 ) ) ;
#455 = LINE ( 'NONE', #105, #146 ) ;
#456 = ORIENTED_EDGE ( 'NONE', *, *, #26, .T. ) ;
#457 = ORIENTED_EDGE ( 'NONE', *, *, #700, .T. ) ;
#458 = CARTESIAN_POINT ( 'NONE',  ( 0.2047244094488189226, -0.01968503937007873988, -0.1496062992125984370 ) ) ;
#459 = EDGE_CURVE ( 'NONE', #600, #473, #434, .T. ) ;
#460 = CARTESIAN_POINT ( 'NONE',  ( 0.2047244094488189226, -1.316753953749338653E-17, -0.1496062992125984370 ) ) ;
#461 = EDGE_LOOP ( 'NONE', ( #7, #352, #665, #29 ) ) ;
#462 = DIRECTION ( 'NONE',  ( 0.000000000000000000, 0.000000000000000000, -1.000000000000000000 ) ) ;
#463 = DIRECTION ( 'NONE',  ( -1.000000000000000000, 0.000000000000000000, 0.000000000000000000 ) ) ;
#464 = CARTESIAN_POINT ( 'NONE',  ( 0.000000000000000000, 0.3818897637795276578, 0.1496062992125984370 ) ) ;
#465 = AXIS2_PLACEMENT_3D ( 'NONE', #10, #75, #493 ) ;
#466 = DIMENSIONAL_EXPONENTS ( 1.000000000000000000, 0.000000000000000000, 0.000000000000000000, 0.000000000000000000, 0.000000000000000000, 0.000000000000000000, 0.000000000000000000 ) ;
#467 = VERTEX_POINT ( 'NONE', #739 ) ;
#468 = VECTOR ( 'NONE', #633, 39.37007874015748143 ) ;
#469 = PRODUCT_DEFINITION_SHAPE ( 'NONE', 'NONE',  #420 ) ;
#470 = UNCERTAINTY_MEASURE_WITH_UNIT (LENGTH_MEASURE( 1.000000000000000082E-05 ), #193, 'distance_accuracy_value', 'NONE');
#471 =( NAMED_UNIT ( * ) PLANE_ANGLE_UNIT ( ) SI_UNIT ( $, .RADIAN. ) );
#472 = LINE ( 'NONE', #345, #632 ) ;
#473 = VERTEX_POINT ( 'NONE', #94 ) ;
#474 =( NAMED_UNIT ( * ) SI_UNIT ( $, .STERADIAN. ) SOLID_ANGLE_UNIT ( ) );
#475 = CARTESIAN_POINT ( 'NONE',  ( -0.01476377952755905665, -7.381418798421771841E-18, 0.05019685039370079538 ) ) ;
#476 = VERTEX_POINT ( 'NONE', #856 ) ;
#477 = SHAPE_DEFINITION_REPRESENTATION ( #469, #524 ) ;
#478 = EDGE_CURVE ( 'NONE', #595, #307, #109, .T. ) ;
#479 = PLANE ( 'NONE',  #206 ) ;
#480 = DIRECTION ( 'NONE',  ( 1.000000000000000000, 6.431836620237159960E-17, 0.000000000000000000 ) ) ;
#481 = ORIENTED_EDGE ( 'NONE', *, *, #722, .F. ) ;
#482 = AXIS2_PLACEMENT_3D ( 'NONE', #413, #828, #609 ) ;
#483 = COLOUR_RGB ( '',0.7921568627450980005, 0.8196078431372548767, 0.9333333333333333481 ) ;
#484 = DIRECTION ( 'NONE',  ( 1.206764157201260003E-16, -1.000000000000000000, 0.000000000000000000 ) ) ;
#485 = ADVANCED_FACE ( 'NONE', ( #516 ), #168, .F. ) ;
#486 = DIRECTION ( 'NONE',  ( 0.000000000000000000, 0.000000000000000000, -1.000000000000000000 ) ) ;
#487 = ORIENTED_EDGE ( 'NONE', *, *, #139, .F. ) ;
#488 = DIRECTION ( 'NONE',  ( 0.000000000000000000, 0.000000000000000000, -1.000000000000000000 ) ) ;
#489 = CARTESIAN_POINT ( 'NONE',  ( -0.1303149606299212893, 0.08759842519685039075, 0.1496062992125984370 ) ) ;
#490 = EDGE_CURVE ( 'NONE', #495, #606, #383, .T. ) ;
#491 = ORIENTED_EDGE ( 'NONE', *, *, #124, .F. ) ;
#492 = CARTESIAN_POINT ( 'NONE',  ( 0.2283464566929133688, 0.3818897637795276578, -0.1496062992125984370 ) ) ;
#493 = DIRECTION ( 'NONE',  ( -1.206764157201260003E-16, 1.000000000000000000, 0.000000000000000000 ) ) ;
#494 = UNCERTAINTY_MEASURE_WITH_UNIT (LENGTH_MEASURE( 1.000000000000000082E-05 ), #181, 'distance_accuracy_value', 'NONE');
#495 = VERTEX_POINT ( 'NONE', #315 ) ;
#496 = VECTOR ( 'NONE', #756, 39.37007874015748143 ) ;
#497 = CARTESIAN_POINT ( 'NONE',  ( 0.01476377952755905665, -0.1811023622047244208, 0.05019685039370079538 ) ) ;
#498 =( GEOMETRIC_REPRESENTATION_CONTEXT ( 3 ) GLOBAL_UNCERTAINTY_ASSIGNED_CONTEXT ( ( #470 ) ) GLOBAL_UNIT_ASSIGNED_CONTEXT ( ( #193, #471, #474 ) ) REPRESENTATION_CONTEXT ( 'NONE', 'WORKASPACE' ) );
#499 = LINE ( 'NONE', #426, #705 ) ;
#500 = ORIENTED_EDGE ( 'NONE', *, *, #775, .F. ) ;
#501 = EDGE_CURVE ( 'NONE', #553, #595, #662, .T. ) ;
#502 = DIRECTION ( 'NONE',  ( 1.000000000000000000, 6.431836620237159960E-17, 0.000000000000000000 ) ) ;
#503 = FACE_OUTER_BOUND ( 'NONE', #697, .T. ) ;
#504 = ORIENTED_EDGE ( 'NONE', *, *, #842, .T. ) ;
#505 = EDGE_LOOP ( 'NONE', ( #273, #302, #536, #123 ) ) ;
#506 = LINE ( 'NONE', #129, #735 ) ;
#507 = DIRECTION ( 'NONE',  ( -1.206764157201260003E-16, 1.000000000000000000, 0.000000000000000000 ) ) ;
#508 = ORIENTED_EDGE ( 'NONE', *, *, #478, .F. ) ;
#509 = DIRECTION ( 'NONE',  ( 1.000000000000000000, -2.176907891421880161E-16, 0.000000000000000000 ) ) ;
#510 = CARTESIAN_POINT ( 'NONE',  ( -0.08523622047244096278, -5.482254442052560096E-18, 0.05019685039370079538 ) ) ;
#511 = AXIS2_PLACEMENT_3D ( 'NONE', #602, #264, #753 ) ;
#512 = EDGE_CURVE ( 'NONE', #882, #762, #667, .T. ) ;
#513 = PLANE ( 'NONE',  #787 ) ;
#514 = ORIENTED_EDGE ( 'NONE', *, *, #165, .F. ) ;
#515 = LINE ( 'NONE', #32, #221 ) ;
#516 = FACE_OUTER_BOUND ( 'NONE', #829, .T. ) ;
#517 = DIRECTION ( 'NONE',  ( 0.000000000000000000, 0.000000000000000000, -1.000000000000000000 ) ) ;
#518 = ADVANCED_FACE ( 'NONE', ( #230 ), #871, .F. ) ;
#519 = ORIENTED_EDGE ( 'NONE', *, *, #165, .T. ) ;
#520 = DIRECTION ( 'NONE',  ( -1.000000000000000000, -6.431836620237159960E-17, 0.000000000000000000 ) ) ;
#521 = DIRECTION ( 'NONE',  ( 0.000000000000000000, 0.000000000000000000, -1.000000000000000000 ) ) ;
#522 = FACE_OUTER_BOUND ( 'NONE', #212, .T. ) ;
#523 = ORIENTED_EDGE ( 'NONE', *, *, #842, .F. ) ;
#524 = ADVANCED_BREP_SHAPE_REPRESENTATION ( 'CUI_P7812B-1000', ( #862, #854, #253, #554, #134 ), #807 ) ;
#525 = DIRECTION ( 'NONE',  ( 0.000000000000000000, 0.000000000000000000, -1.000000000000000000 ) ) ;
#526 = CARTESIAN_POINT ( 'NONE',  ( 0.2047244094488189226, -0.01968503937007873988, -0.1496062992125984370 ) ) ;
#527 = VECTOR ( 'NONE', #790, 39.37007874015748143 ) ;
#528 = DIMENSIONAL_EXPONENTS ( 1.000000000000000000, 0.000000000000000000, 0.000000000000000000, 0.000000000000000000, 0.000000000000000000, 0.000000000000000000, 0.000000000000000000 ) ;
#529 = VECTOR ( 'NONE', #484, 39.37007874015748143 ) ;
#530 = LINE ( 'NONE', #725, #732 ) ;
#531 = VECTOR ( 'NONE', #607, 39.37007874015748143 ) ;
#532 = ORIENTED_EDGE ( 'NONE', *, *, #679, .F. ) ;
#533 = ADVANCED_FACE ( 'NONE', ( #121 ), #479, .T. ) ;
#534 = DIRECTION ( 'NONE',  ( 0.000000000000000000, 0.000000000000000000, -1.000000000000000000 ) ) ;
#535 = DIRECTION ( 'NONE',  ( 0.000000000000000000, 0.000000000000000000, 1.000000000000000000 ) ) ;
#536 = ORIENTED_EDGE ( 'NONE', *, *, #612, .F. ) ;
#537 = ADVANCED_FACE ( 'NONE', ( #820 ), #391, .F. ) ;
#538 = PLANE ( 'NONE',  #804 ) ;
#539 = CARTESIAN_POINT ( 'NONE',  ( 0.08523622047244096278, -7.381418798421771841E-18, 0.05019685039370079538 ) ) ;
#540 = ORIENTED_EDGE ( 'NONE', *, *, #490, .T. ) ;
#541 = DIRECTION ( 'NONE',  ( 0.000000000000000000, 0.000000000000000000, -1.000000000000000000 ) ) ;
#542 = CLOSED_SHELL ( 'NONE', ( #817, #485, #97, #83, #901, #555 ) ) ;
#543 = DIRECTION ( 'NONE',  ( 6.431836620237159960E-17, -1.000000000000000000, 0.000000000000000000 ) ) ;
#544 = DIRECTION ( 'NONE',  ( 2.176907891421880161E-16, -1.000000000000000000, 0.000000000000000000 ) ) ;
#545 = EDGE_CURVE ( 'NONE', #350, #745, #812, .T. ) ;
#546 = AXIS2_PLACEMENT_3D ( 'NONE', #34, #733, #305 ) ;
#547 = ORIENTED_EDGE ( 'NONE', *, *, #749, .F. ) ;
#548 = VECTOR ( 'NONE', #38, 39.37007874015748143 ) ;
#549 = DIRECTION ( 'NONE',  ( 1.000000000000000000, 2.312964634635739999E-16, 0.000000000000000000 ) ) ;
#550 = ORIENTED_EDGE ( 'NONE', *, *, #13, .T. ) ;
#551 = LINE ( 'NONE', #399, #103 ) ;
#552 = DIRECTION ( 'NONE',  ( 0.000000000000000000, 0.000000000000000000, -1.000000000000000000 ) ) ;
#553 = VERTEX_POINT ( 'NONE', #404 ) ;
#554 = MANIFOLD_SOLID_BREP ( 'Imported4', #266 ) ;
#555 = ADVANCED_FACE ( 'NONE', ( #816 ), #538, .T. ) ;
#556 = CARTESIAN_POINT ( 'NONE',  ( -0.2283464566929133688, 0.3818897637795276578, 0.000000000000000000 ) ) ;
#557 = CARTESIAN_POINT ( 'NONE',  ( -0.2047244094488189226, -1.316753953749338653E-17, -0.1496062992125984370 ) ) ;
#558 = ORIENTED_EDGE ( 'NONE', *, *, #775, .T. ) ;
#559 = PRESENTATION_LAYER_ASSIGNMENT (  '', '', ( #450 ) ) ;
#560 = CIRCLE ( 'NONE', #511, 0.01968503937007872254 ) ;
#561 = ADVANCED_FACE ( 'NONE', ( #689 ), #188, .T. ) ;
#562 = FACE_OUTER_BOUND ( 'NONE', #25, .T. ) ;
#563 =( NAMED_UNIT ( * ) SI_UNIT ( $, .STERADIAN. ) SOLID_ANGLE_UNIT ( ) );
#564 = VERTEX_POINT ( 'NONE', #53 ) ;
#565 = PLANE ( 'NONE',  #48 ) ;
#566 = CARTESIAN_POINT ( 'NONE',  ( -0.01476377952755905665, -0.1811023622047244208, 0.05019685039370079538 ) ) ;
#567 = EDGE_LOOP ( 'NONE', ( #258, #792 ) ) ;
#568 = PLANE ( 'NONE',  #747 ) ;
#569 = DIRECTION ( 'NONE',  ( -1.000000000000000000, -6.431836620237159960E-17, 0.000000000000000000 ) ) ;
#570 = EDGE_LOOP ( 'NONE', ( #112, #851, #446, #540 ) ) ;
#571 = EDGE_CURVE ( 'NONE', #262, #757, #623, .T. ) ;
#572 = APPLICATION_PROTOCOL_DEFINITION ( 'draft international standard', 'automotive_design', 1998, #90 ) ;
#573 = PLANE ( 'NONE',  #355 ) ;
#574 = AXIS2_PLACEMENT_3D ( 'NONE', #184, #534, #463 ) ;
#575 = LINE ( 'NONE', #207, #675 ) ;
#576 = VERTEX_POINT ( 'NONE', #608 ) ;
#577 = FACE_OUTER_BOUND ( 'NONE', #570, .T. ) ;
#578 = DIRECTION ( 'NONE',  ( -2.220446049250320181E-15, 1.000000000000000000, 0.000000000000000000 ) ) ;
#579 = EDGE_LOOP ( 'NONE', ( #128, #441, #222, #481 ) ) ;
#580 = PLANE ( 'NONE',  #422 ) ;
#581 = EDGE_CURVE ( 'NONE', #882, #564, #613, .T. ) ;
#582 = CARTESIAN_POINT ( 'NONE',  ( -0.2283464566929133688, -0.01968503937007873988, -0.1496062992125984370 ) ) ;
#583 = PLANE ( 'NONE',  #730 ) ;
#584 = ORIENTED_EDGE ( 'NONE', *, *, #157, .F. ) ;
#585 = PLANE ( 'NONE',  #834 ) ;
#586 = VECTOR ( 'NONE', #569, 39.37007874015748143 ) ;
#587 = EDGE_CURVE ( 'NONE', #290, #606, #551, .T. ) ;
#588 = CARTESIAN_POINT ( 'NONE',  ( 0.2283464566929133688, -0.01968503937007873988, 0.1496062992125984370 ) ) ;
#589 = VECTOR ( 'NONE', #660, 39.37007874015748143 ) ;
#590 = CARTESIAN_POINT ( 'NONE',  ( 0.01476377952755905665, -5.482254442052560096E-18, 0.06003937007874016185 ) ) ;
#591 = EDGE_LOOP ( 'NONE', ( #173, #406, #687, #51 ) ) ;
#592 = DIRECTION ( 'NONE',  ( 1.206764157201260003E-16, -1.000000000000000000, 0.000000000000000000 ) ) ;
#593 = DIRECTION ( 'NONE',  ( 1.206764157201260003E-16, -1.000000000000000000, 0.000000000000000000 ) ) ;
#594 = CARTESIAN_POINT ( 'NONE',  ( 0.2283464566929133688, -0.01968503937007873988, -0.1496062992125984370 ) ) ;
#595 = VERTEX_POINT ( 'NONE', #324 ) ;
#596 = DIRECTION ( 'NONE',  ( 0.000000000000000000, 0.000000000000000000, -1.000000000000000000 ) ) ;
#597 = CARTESIAN_POINT ( 'NONE',  ( 0.2283464566929133688, -0.01968503937007873988, 0.000000000000000000 ) ) ;
#598 = DIRECTION ( 'NONE',  ( 0.000000000000000000, 0.000000000000000000, -1.000000000000000000 ) ) ;
#599 = EDGE_CURVE ( 'NONE', #741, #316, #560, .T. ) ;
#600 = VERTEX_POINT ( 'NONE', #684 ) ;
#601 = CARTESIAN_POINT ( 'NONE',  ( -0.01476377952755905665, -7.381418798421771841E-18, 0.05019685039370079538 ) ) ;
#602 = CARTESIAN_POINT ( 'NONE',  ( -0.1499999999999999944, 0.08759842519685039075, 0.1496062992125984370 ) ) ;
#603 = AXIS2_PLACEMENT_3D ( 'NONE', #122, #535, #813 ) ;
#604 =( GEOMETRIC_REPRESENTATION_CONTEXT ( 3 ) GLOBAL_UNCERTAINTY_ASSIGNED_CONTEXT ( ( #286 ) ) GLOBAL_UNIT_ASSIGNED_CONTEXT ( ( #727, #448, #187 ) ) REPRESENTATION_CONTEXT ( 'NONE', 'WORKASPACE' ) );
#605 = EDGE_LOOP ( 'NONE', ( #340, #909, #809, #615 ) ) ;
#606 = VERTEX_POINT ( 'NONE', #57 ) ;
#607 = DIRECTION ( 'NONE',  ( 0.000000000000000000, 0.000000000000000000, -1.000000000000000000 ) ) ;
#608 = CARTESIAN_POINT ( 'NONE',  ( 0.01476377952755905665, -5.482254442052560096E-18, 0.05019685039370079538 ) ) ;
#609 = DIRECTION ( 'NONE',  ( 0.000000000000000000, -1.000000000000000000, 0.000000000000000000 ) ) ;
#610 = EDGE_LOOP ( 'NONE', ( #35, #252, #81, #191, #180, #12, #658, #726 ) ) ;
#611 =( LENGTH_UNIT ( ) NAMED_UNIT ( * ) SI_UNIT ( $, .METRE. ) );
#612 = EDGE_CURVE ( 'NONE', #427, #628, #338, .T. ) ;
#613 = LINE ( 'NONE', #274, #237 ) ;
#614 = LINE ( 'NONE', #464, #102 ) ;
#615 = ORIENTED_EDGE ( 'NONE', *, *, #13, .F. ) ;
#616 = SURFACE_STYLE_FILL_AREA ( #758 ) ;
#617 = ADVANCED_FACE ( 'NONE', ( #562 ), #568, .T. ) ;
#618 = DIRECTION ( 'NONE',  ( -1.000000000000000000, -2.312964634635739999E-16, 0.000000000000000000 ) ) ;
#619 = AXIS2_PLACEMENT_3D ( 'NONE', #6, #641, #86 ) ;
#620 = ORIENTED_EDGE ( 'NONE', *, *, #459, .T. ) ;
#621 = VECTOR ( 'NONE', #525, 39.37007874015748143 ) ;
#622 = PRESENTATION_STYLE_ASSIGNMENT (( #688 ) ) ;
#623 = LINE ( 'NONE', #334, #270 ) ;
#624 = CARTESIAN_POINT ( 'NONE',  ( 0.1147637795275590622, -5.482254442052560096E-18, 0.06003937007874016185 ) ) ;
#625 = ORIENTED_EDGE ( 'NONE', *, *, #896, .F. ) ;
#626 = DIRECTION ( 'NONE',  ( -1.000000000000000000, 0.000000000000000000, 0.000000000000000000 ) ) ;
#627 = PLANE ( 'NONE',  #603 ) ;
#628 = VERTEX_POINT ( 'NONE', #837 ) ;
#629 = EDGE_CURVE ( 'NONE', #595, #600, #780, .T. ) ;
#630 = DIRECTION ( 'NONE',  ( 0.000000000000000000, 0.000000000000000000, 1.000000000000000000 ) ) ;
#631 = ORIENTED_EDGE ( 'NONE', *, *, #884, .F. ) ;
#632 = VECTOR ( 'NONE', #480, 39.37007874015748143 ) ;
#633 = DIRECTION ( 'NONE',  ( 1.000000000000000000, 6.431836620237159960E-17, 0.000000000000000000 ) ) ;
#634 = CARTESIAN_POINT ( 'NONE',  ( -0.1147637795275590622, -7.381418798421771841E-18, 0.06003937007874016185 ) ) ;
#635 = EDGE_LOOP ( 'NONE', ( #839, #898, #394, #682 ) ) ;
#636 = DIRECTION ( 'NONE',  ( 1.206764157201260003E-16, -1.000000000000000000, 0.000000000000000000 ) ) ;
#637 = ADVANCED_FACE ( 'NONE', ( #348 ), #425, .T. ) ;
#638 = CARTESIAN_POINT ( 'NONE',  ( 0.1147637795275590622, -0.1811023622047244208, 0.05019685039370079538 ) ) ;
#639 = EDGE_LOOP ( 'NONE', ( #508, #322, #877, #514 ) ) ;
#640 = CARTESIAN_POINT ( 'NONE',  ( -0.08523622047244096278, -0.1811023622047244208, 0.06003937007874016185 ) ) ;
#641 = DIRECTION ( 'NONE',  ( -1.000000000000000000, 2.220446049250320181E-15, 0.000000000000000000 ) ) ;
#642 = EDGE_CURVE ( 'NONE', #326, #467, #763, .T. ) ;
#643 = EDGE_LOOP ( 'NONE', ( #88, #287, #317, #40 ) ) ;
#644 = ORIENTED_EDGE ( 'NONE', *, *, #811, .T. ) ;
#645 = VECTOR ( 'NONE', #618, 39.37007874015748143 ) ;
#646 = VECTOR ( 'NONE', #98, 39.37007874015748143 ) ;
#647 = DIRECTION ( 'NONE',  ( 0.000000000000000000, 0.000000000000000000, -1.000000000000000000 ) ) ;
#648 = PLANE ( 'NONE',  #691 ) ;
#649 = ORIENTED_EDGE ( 'NONE', *, *, #378, .F. ) ;
#650 = ADVANCED_FACE ( 'NONE', ( #361 ), #771, .T. ) ;
#651 = CARTESIAN_POINT ( 'NONE',  ( 0.2283464566929133688, -0.01968503937007873988, 0.000000000000000000 ) ) ;
#652 = CARTESIAN_POINT ( 'NONE',  ( 0.01476377952755905665, -5.482254442052560096E-18, 0.06003937007874016185 ) ) ;
#653 = DIRECTION ( 'NONE',  ( -1.206764157201260003E-16, 1.000000000000000000, 0.000000000000000000 ) ) ;
#654 = ORIENTED_EDGE ( 'NONE', *, *, #884, .T. ) ;
#655 = ADVANCED_FACE ( 'NONE', ( #694 ), #573, .T. ) ;
#656 = SURFACE_SIDE_STYLE ('',( #155 ) ) ;
#657 = LINE ( 'NONE', #597, #269 ) ;
#658 = ORIENTED_EDGE ( 'NONE', *, *, #149, .T. ) ;
#659 = ORIENTED_EDGE ( 'NONE', *, *, #116, .T. ) ;
#660 = DIRECTION ( 'NONE',  ( 1.000000000000000000, -2.312964634635739999E-16, 0.000000000000000000 ) ) ;
#661 = VECTOR ( 'NONE', #720, 39.37007874015748143 ) ;
#662 = LINE ( 'NONE', #301, #64 ) ;
#663 = COLOUR_RGB ( '',0.7921568627450980005, 0.8196078431372548767, 0.9333333333333333481 ) ;
#664 = FACE_OUTER_BOUND ( 'NONE', #843, .T. ) ;
#665 = ORIENTED_EDGE ( 'NONE', *, *, #490, .F. ) ;
#666 = LINE ( 'NONE', #432, #646 ) ;
#667 = LINE ( 'NONE', #510, #848 ) ;
#668 = DIRECTION ( 'NONE',  ( 1.000000000000000000, 0.000000000000000000, 0.000000000000000000 ) ) ;
#669 = ORIENTED_EDGE ( 'NONE', *, *, #716, .T. ) ;
#670 = DIRECTION ( 'NONE',  ( 0.000000000000000000, 0.000000000000000000, -1.000000000000000000 ) ) ;
#671 = CARTESIAN_POINT ( 'NONE',  ( -0.01476377952755905665, -0.1811023622047244208, 0.06003937007874016185 ) ) ;
#672 = ADVANCED_FACE ( 'NONE', ( #354 ), #565, .T. ) ;
#673 = ORIENTED_EDGE ( 'NONE', *, *, #378, .T. ) ;
#674 = FILL_AREA_STYLE_COLOUR ( '', #483 ) ;
#675 = VECTOR ( 'NONE', #367, 39.37007874015748143 ) ;
#676 = VECTOR ( 'NONE', #167, 39.37007874015748143 ) ;
#677 = CARTESIAN_POINT ( 'NONE',  ( -0.2047244094488189226, -0.01968503937007873988, 0.1496062992125984370 ) ) ;
#678 = ORIENTED_EDGE ( 'NONE', *, *, #738, .T. ) ;
#679 = EDGE_CURVE ( 'NONE', #564, #326, #5, .T. ) ;
#680 =( NAMED_UNIT ( * ) PLANE_ANGLE_UNIT ( ) SI_UNIT ( $, .RADIAN. ) );
#681 = DIRECTION ( 'NONE',  ( 1.000000000000000000, 0.000000000000000000, 0.000000000000000000 ) ) ;
#682 = ORIENTED_EDGE ( 'NONE', *, *, #744, .F. ) ;
#683 = EDGE_CURVE ( 'NONE', #762, #107, #213, .T. ) ;
#684 = CARTESIAN_POINT ( 'NONE',  ( 0.2047244094488189226, -1.316753953749338653E-17, 0.1496062992125984370 ) ) ;
#685 = APPLICATION_CONTEXT ( 'automotive_design' ) ;
#686 = LINE ( 'NONE', #58, #133 ) ;
#687 = ORIENTED_EDGE ( 'NONE', *, *, #176, .T. ) ;
#688 = SURFACE_STYLE_USAGE ( .BOTH. , #751 ) ;
#689 = FACE_OUTER_BOUND ( 'NONE', #643, .T. ) ;
#690 = CARTESIAN_POINT ( 'NONE',  ( -0.2047244094488189226, -1.316753953749338653E-17, -0.1496062992125984370 ) ) ;
#691 = AXIS2_PLACEMENT_3D ( 'NONE', #153, #845, #430 ) ;
#692 = ORIENTED_EDGE ( 'NONE', *, *, #139, .T. ) ;
#693 = AXIS2_PLACEMENT_3D ( 'NONE', #175, #119, #454 ) ;
#694 = FACE_OUTER_BOUND ( 'NONE', #78, .T. ) ;
#695 = LINE ( 'NONE', #690, #407 ) ;
#696 = EDGE_CURVE ( 'NONE', #731, #419, #840, .T. ) ;
#697 = EDGE_LOOP ( 'NONE', ( #773, #584, #620, #649 ) ) ;
#698 = DIRECTION ( 'NONE',  ( 0.000000000000000000, -1.000000000000000000, 0.000000000000000000 ) ) ;
#699 = LENGTH_MEASURE_WITH_UNIT ( LENGTH_MEASURE( 0.02539999999999999897 ), #211 );
#700 = EDGE_CURVE ( 'NONE', #55, #861, #224, .T. ) ;
#701 = ORIENTED_EDGE ( 'NONE', *, *, #130, .F. ) ;
#702 = DIRECTION ( 'NONE',  ( 0.000000000000000000, 0.000000000000000000, -1.000000000000000000 ) ) ;
#703 = DIRECTION ( 'NONE',  ( 1.000000000000000000, 2.220446049250320181E-15, 0.000000000000000000 ) ) ;
#704 = ORIENTED_EDGE ( 'NONE', *, *, #587, .F. ) ;
#705 = VECTOR ( 'NONE', #225, 39.37007874015748143 ) ;
#706 = AXIS2_PLACEMENT_3D ( 'NONE', #825, #62, #126 ) ;
#707 = CARTESIAN_POINT ( 'NONE',  ( 0.1147637795275590622, -5.482254442052560096E-18, 0.05019685039370079538 ) ) ;
#708 = FACE_OUTER_BOUND ( 'NONE', #398, .T. ) ;
#709 = ORIENTED_EDGE ( 'NONE', *, *, #599, .F. ) ;
#710 = EDGE_CURVE ( 'NONE', #417, #495, #418, .T. ) ;
#711 = CARTESIAN_POINT ( 'NONE',  ( 0.1147637795275590622, -0.1811023622047244208, 0.05019685039370079538 ) ) ;
#712 =( NAMED_UNIT ( * ) PLANE_ANGLE_UNIT ( ) SI_UNIT ( $, .RADIAN. ) );
#713 = ORIENTED_EDGE ( 'NONE', *, *, #1, .F. ) ;
#714 = DIRECTION ( 'NONE',  ( -0.000000000000000000, 1.000000000000000000, 0.000000000000000000 ) ) ;
#715 =( CONVERSION_BASED_UNIT ( 'INCH', #699 ) LENGTH_UNIT ( ) NAMED_UNIT ( #528 ) );
#716 = EDGE_CURVE ( 'NONE', #628, #268, #150, .T. ) ;
#717 = ORIENTED_EDGE ( 'NONE', *, *, #285, .T. ) ;
#718 = VECTOR ( 'NONE', #681, 39.37007874015748143 ) ;
#719 = SURFACE_STYLE_USAGE ( .BOTH. , #656 ) ;
#720 = DIRECTION ( 'NONE',  ( 0.000000000000000000, 0.000000000000000000, -1.000000000000000000 ) ) ;
#721 = PLANE ( 'NONE',  #218 ) ;
#722 = EDGE_CURVE ( 'NONE', #236, #782, #2, .T. ) ;
#723 = CARTESIAN_POINT ( 'NONE',  ( 0.08523622047244096278, -7.381418798421771841E-18, 0.06003937007874016185 ) ) ;
#724 = CARTESIAN_POINT ( 'NONE',  ( -0.2283464566929133688, -0.01968503937007873988, -0.1496062992125984370 ) ) ;
#725 = CARTESIAN_POINT ( 'NONE',  ( -0.01476377952755905665, -0.1811023622047244208, 0.06003937007874016185 ) ) ;
#726 = ORIENTED_EDGE ( 'NONE', *, *, #501, .T. ) ;
#727 =( CONVERSION_BASED_UNIT ( 'INCH', #442 ) LENGTH_UNIT ( ) NAMED_UNIT ( #752 ) );
#728 = CARTESIAN_POINT ( 'NONE',  ( 0.01476377952755905665, -5.482254442052560096E-18, 0.05019685039370079538 ) ) ;
#729 = CARTESIAN_POINT ( 'NONE',  ( 0.08523622047244096278, -7.381418798421771841E-18, 0.05019685039370079538 ) ) ;
#730 = AXIS2_PLACEMENT_3D ( 'NONE', #159, #876, #517 ) ;
#731 = VERTEX_POINT ( 'NONE', #137 ) ;
#732 = VECTOR ( 'NONE', #451, 39.37007874015748143 ) ;
#733 = DIRECTION ( 'NONE',  ( -2.312964634635739999E-16, -1.000000000000000000, 0.000000000000000000 ) ) ;
#734 = AXIS2_PLACEMENT_3D ( 'NONE', #351, #702, #292 ) ;
#735 = VECTOR ( 'NONE', #462, 39.37007874015748143 ) ;
#736 = FACE_OUTER_BOUND ( 'NONE', #186, .T. ) ;
#737 = ORIENTED_EDGE ( 'NONE', *, *, #229, .T. ) ;
#738 = EDGE_CURVE ( 'NONE', #781, #385, #435, .T. ) ;
#739 = CARTESIAN_POINT ( 'NONE',  ( -0.1147637795275590622, -0.1811023622047244208, 0.06003937007874016185 ) ) ;
#740 = LINE ( 'NONE', #320, #59 ) ;
#741 = VERTEX_POINT ( 'NONE', #903 ) ;
#742 = DIRECTION ( 'NONE',  ( -1.000000000000000000, -6.431836620237159960E-17, 0.000000000000000000 ) ) ;
#743 = DIRECTION ( 'NONE',  ( -1.000000000000000000, 6.431836620237159960E-17, 0.000000000000000000 ) ) ;
#744 = EDGE_CURVE ( 'NONE', #757, #16, #421, .T. ) ;
#745 = VERTEX_POINT ( 'NONE', #707 ) ;
#746 = AXIS2_PLACEMENT_3D ( 'NONE', #791, #311, #384 ) ;
#747 = AXIS2_PLACEMENT_3D ( 'NONE', #359, #630, #284 ) ;
#748 = CARTESIAN_POINT ( 'NONE',  ( 0.2283464566929133688, 0.3818897637795276578, -0.1496062992125984370 ) ) ;
#749 = EDGE_CURVE ( 'NONE', #553, #765, #874, .T. ) ;
#750 = ORIENTED_EDGE ( 'NONE', *, *, #73, .T. ) ;
#751 = SURFACE_SIDE_STYLE ('',( #815 ) ) ;
#752 = DIMENSIONAL_EXPONENTS ( 1.000000000000000000, 0.000000000000000000, 0.000000000000000000, 0.000000000000000000, 0.000000000000000000, 0.000000000000000000, 0.000000000000000000 ) ;
#753 = DIRECTION ( 'NONE',  ( -1.000000000000000000, 0.000000000000000000, 0.000000000000000000 ) ) ;
#754 = DIRECTION ( 'NONE',  ( -2.220446049250320181E-15, -1.000000000000000000, 0.000000000000000000 ) ) ;
#755 = EDGE_LOOP ( 'NONE', ( #523, #66, #852, #886 ) ) ;
#756 = DIRECTION ( 'NONE',  ( 1.206764157201260003E-16, -1.000000000000000000, 0.000000000000000000 ) ) ;
#757 = VERTEX_POINT ( 'NONE', #37 ) ;
#758 = FILL_AREA_STYLE ('',( #674 ) ) ;
#759 = DIRECTION ( 'NONE',  ( -1.000000000000000000, 0.000000000000000000, 0.000000000000000000 ) ) ;
#760 = VECTOR ( 'NONE', #99, 39.37007874015748143 ) ;
#761 = VECTOR ( 'NONE', #141, 39.37007874015748143 ) ;
#762 = VERTEX_POINT ( 'NONE', #437 ) ;
#763 = LINE ( 'NONE', #74, #408 ) ;
#764 = DIRECTION ( 'NONE',  ( -1.000000000000000000, 0.000000000000000000, 0.000000000000000000 ) ) ;
#765 = VERTEX_POINT ( 'NONE', #789 ) ;
#766 = DIRECTION ( 'NONE',  ( 0.000000000000000000, 0.000000000000000000, 1.000000000000000000 ) ) ;
#767 = FILL_AREA_STYLE_COLOUR ( '', #46 ) ;
#768 = UNCERTAINTY_MEASURE_WITH_UNIT (LENGTH_MEASURE( 1.000000000000000082E-05 ), #715, 'distance_accuracy_value', 'NONE');
#769 = EDGE_LOOP ( 'NONE', ( #737, #519, #692, #276, #659, #136, #456, #673 ) ) ;
#770 = EDGE_CURVE ( 'NONE', #20, #476, #666, .T. ) ;
#771 = PLANE ( 'NONE',  #865 ) ;
#772 = LINE ( 'NONE', #566, #174 ) ;
#773 = ORIENTED_EDGE ( 'NONE', *, *, #700, .F. ) ;
#774 = VECTOR ( 'NONE', #743, 39.37007874015748143 ) ;
#775 = EDGE_CURVE ( 'NONE', #741, #385, #22, .T. ) ;
#776 = VECTOR ( 'NONE', #19, 39.37007874015748143 ) ;
#777 = CARTESIAN_POINT ( 'NONE',  ( 0.1147637795275590622, -5.482254442052560096E-18, 0.06003937007874016185 ) ) ;
#778 = DIRECTION ( 'NONE',  ( -2.220446049250320181E-15, 1.000000000000000000, 0.000000000000000000 ) ) ;
#779 = ORIENTED_EDGE ( 'NONE', *, *, #183, .F. ) ;
#780 = LINE ( 'NONE', #219, #312 ) ;
#781 = VERTEX_POINT ( 'NONE', #365 ) ;
#782 = VERTEX_POINT ( 'NONE', #314 ) ;
#783 = FILL_AREA_STYLE ('',( #793 ) ) ;
#784 = ADVANCED_FACE ( 'NONE', ( #377 ), #300, .T. ) ;
#785 = CARTESIAN_POINT ( 'NONE',  ( 0.08523622047244096278, -7.381418798421771841E-18, 0.06003937007874016185 ) ) ;
#786 = LINE ( 'NONE', #39, #143 ) ;
#787 = AXIS2_PLACEMENT_3D ( 'NONE', #24, #251, #444 ) ;
#788 = AXIS2_PLACEMENT_3D ( 'NONE', #651, #509, #304 ) ;
#789 = CARTESIAN_POINT ( 'NONE',  ( -0.2047244094488189226, -0.01968503937007873988, -0.1496062992125984370 ) ) ;
#790 = DIRECTION ( 'NONE',  ( 1.206764157201260003E-16, -1.000000000000000000, 0.000000000000000000 ) ) ;
#791 = CARTESIAN_POINT ( 'NONE',  ( -0.1499999999999999944, 0.08759842519685039075, 0.1496062992125984370 ) ) ;
#792 = ORIENTED_EDGE ( 'NONE', *, *, #370, .T. ) ;
#793 = FILL_AREA_STYLE_COLOUR ( '', #663 ) ;
#794 = DIRECTION ( 'NONE',  ( -2.176907891421880161E-16, 1.000000000000000000, 0.000000000000000000 ) ) ;
#795 = ORIENTED_EDGE ( 'NONE', *, *, #545, .T. ) ;
#796 = EDGE_CURVE ( 'NONE', #55, #424, #866, .T. ) ;
#797 = EDGE_LOOP ( 'NONE', ( #631, #709, #558, #313 ) ) ;
#798 = CARTESIAN_POINT ( 'NONE',  ( -0.01476377952755905665, -7.381418798421771841E-18, 0.06003937007874016185 ) ) ;
#799 = CARTESIAN_POINT ( 'NONE',  ( 0.01476377952755905665, -5.482254442052560096E-18, 0.05019685039370079538 ) ) ;
#800 = ORIENTED_EDGE ( 'NONE', *, *, #370, .F. ) ;
#801 = EDGE_CURVE ( 'NONE', #202, #107, #515, .T. ) ;
#802 = VECTOR ( 'NONE', #754, 39.37007874015748143 ) ;
#803 = PLANE ( 'NONE',  #693 ) ;
#804 = AXIS2_PLACEMENT_3D ( 'NONE', #888, #42, #899 ) ;
#805 = FACE_OUTER_BOUND ( 'NONE', #227, .T. ) ;
#806 = PRESENTATION_LAYER_ASSIGNMENT (  '', '', ( #295 ) ) ;
#807 =( GEOMETRIC_REPRESENTATION_CONTEXT ( 3 ) GLOBAL_UNCERTAINTY_ASSIGNED_CONTEXT ( ( #494 ) ) GLOBAL_UNIT_ASSIGNED_CONTEXT ( ( #181, #47, #892 ) ) REPRESENTATION_CONTEXT ( 'NONE', 'WORKASPACE' ) );
#808 = DIRECTION ( 'NONE',  ( 1.206764157201260003E-16, -1.000000000000000000, 0.000000000000000000 ) ) ;
#809 = ORIENTED_EDGE ( 'NONE', *, *, #176, .F. ) ;
#810 = LENGTH_MEASURE_WITH_UNIT ( LENGTH_MEASURE( 0.02539999999999999897 ), #113 );
#811 = EDGE_CURVE ( 'NONE', #202, #882, #152, .T. ) ;
#812 = LINE ( 'NONE', #256, #908 ) ;
#813 = DIRECTION ( 'NONE',  ( 1.000000000000000000, 0.000000000000000000, 0.000000000000000000 ) ) ;
#814 = EDGE_LOOP ( 'NONE', ( #226, #795, #504, #60 ) ) ;
#815 = SURFACE_STYLE_FILL_AREA ( #337 ) ;
#816 = FACE_OUTER_BOUND ( 'NONE', #461, .T. ) ;
#817 = ADVANCED_FACE ( 'NONE', ( #577 ), #580, .T. ) ;
#818 = DIRECTION ( 'NONE',  ( 1.206764157201260003E-16, -1.000000000000000000, 0.000000000000000000 ) ) ;
#819 = VERTEX_POINT ( 'NONE', #870 ) ;
#820 = FACE_OUTER_BOUND ( 'NONE', #797, .T. ) ;
#821 = VECTOR ( 'NONE', #438, 39.37007874015748143 ) ;
#822 = VECTOR ( 'NONE', #280, 39.37007874015748143 ) ;
#823 = LINE ( 'NONE', #475, #341 ) ;
#824 = VERTEX_POINT ( 'NONE', #104 ) ;
#825 = CARTESIAN_POINT ( 'NONE',  ( -0.08523622047244096278, -5.482254442052560096E-18, 0.05019685039370079538 ) ) ;
#826 = DIRECTION ( 'NONE',  ( 1.000000000000000000, 6.431836620237159960E-17, 0.000000000000000000 ) ) ;
#827 = ORIENTED_EDGE ( 'NONE', *, *, #110, .F. ) ;
#828 = DIRECTION ( 'NONE',  ( 0.000000000000000000, 0.000000000000000000, -1.000000000000000000 ) ) ;
#829 = EDGE_LOOP ( 'NONE', ( #170, #101, #750, #45 ) ) ;
#830 = EDGE_CURVE ( 'NONE', #476, #427, #855, .T. ) ;
#831 = DIRECTION ( 'NONE',  ( -1.000000000000000000, -2.176907891421880161E-16, 0.000000000000000000 ) ) ;
#832 = CARTESIAN_POINT ( 'NONE',  ( -0.1499999999999999944, 0.08759842519685039075, 0.1496062992125984370 ) ) ;
#833 = VECTOR ( 'NONE', #549, 39.37007874015748143 ) ;
#834 = AXIS2_PLACEMENT_3D ( 'NONE', #428, #714, #85 ) ;
#835 = EDGE_LOOP ( 'NONE', ( #151, #238, #166, #491 ) ) ;
#836 = CIRCLE ( 'NONE', #161, 0.01968503937007872254 ) ;
#837 = CARTESIAN_POINT ( 'NONE',  ( 0.08523622047244096278, -0.1811023622047244208, 0.05019685039370079538 ) ) ;
#838 = DIRECTION ( 'NONE',  ( 0.000000000000000000, 0.000000000000000000, -1.000000000000000000 ) ) ;
#839 = ORIENTED_EDGE ( 'NONE', *, *, #571, .F. ) ;
#840 = LINE ( 'NONE', #906, #761 ) ;
#841 = PRESENTATION_STYLE_ASSIGNMENT (( #356 ) ) ;
#842 = EDGE_CURVE ( 'NONE', #745, #20, #89, .T. ) ;
#843 = EDGE_LOOP ( 'NONE', ( #283, #381, #72, #701 ) ) ;
#844 = DIRECTION ( 'NONE',  ( 1.000000000000000000, 0.000000000000000000, 0.000000000000000000 ) ) ;
#845 = DIRECTION ( 'NONE',  ( 0.000000000000000000, 0.000000000000000000, 1.000000000000000000 ) ) ;
#846 = ORIENTED_EDGE ( 'NONE', *, *, #696, .F. ) ;
#847 = VECTOR ( 'NONE', #552, 39.37007874015748143 ) ;
#848 = VECTOR ( 'NONE', #593, 39.37007874015748143 ) ;
#849 = CARTESIAN_POINT ( 'NONE',  ( -0.1147637795275590622, -7.381418798421771841E-18, 0.05019685039370079538 ) ) ;
#850 = CARTESIAN_POINT ( 'NONE',  ( 0.1147637795275590622, -5.482254442052560096E-18, 0.06003937007874016185 ) ) ;
#851 = ORIENTED_EDGE ( 'NONE', *, *, #303, .T. ) ;
#852 = ORIENTED_EDGE ( 'NONE', *, *, #716, .F. ) ;
#853 = ADVANCED_FACE ( 'NONE', ( #228 ), #585, .T. ) ;
#854 = MANIFOLD_SOLID_BREP ( 'Imported2', #891 ) ;
#855 = LINE ( 'NONE', #723, #31 ) ;
#856 = CARTESIAN_POINT ( 'NONE',  ( 0.08523622047244096278, -7.381418798421771841E-18, 0.06003937007874016185 ) ) ;
#857 = ORIENTED_EDGE ( 'NONE', *, *, #581, .T. ) ;
#858 = EDGE_CURVE ( 'NONE', #140, #236, #506, .T. ) ;
#859 = CARTESIAN_POINT ( 'NONE',  ( 0.1147637795275590622, -5.482254442052560096E-18, 0.05019685039370079538 ) ) ;
#860 = CARTESIAN_POINT ( 'NONE',  ( 0.2047244094488189226, -1.316753953749338653E-17, 0.000000000000000000 ) ) ;
#861 = VERTEX_POINT ( 'NONE', #458 ) ;
#862 = MANIFOLD_SOLID_BREP ( 'Imported1', #217 ) ;
#863 = EDGE_LOOP ( 'NONE', ( #717, #362, #669, #376 ) ) ;
#864 = AXIS2_PLACEMENT_3D ( 'NONE', #293, #703, #778 ) ;
#865 = AXIS2_PLACEMENT_3D ( 'NONE', #79, #410, #698 ) ;
#866 = LINE ( 'NONE', #240, #589 ) ;
#867 = PLANE ( 'NONE',  #546 ) ;
#868 = DIRECTION ( 'NONE',  ( 0.000000000000000000, 0.000000000000000000, -1.000000000000000000 ) ) ;
#869 = ORIENTED_EDGE ( 'NONE', *, *, #796, .F. ) ;
#870 = CARTESIAN_POINT ( 'NONE',  ( -0.1147637795275590622, -0.1811023622047244208, 0.05019685039370079538 ) ) ;
#871 = PLANE ( 'NONE',  #254 ) ;
#872 = DIRECTION ( 'NONE',  ( 1.000000000000000000, 1.206764157201260003E-16, 0.000000000000000000 ) ) ;
#873 = ORIENTED_EDGE ( 'NONE', *, *, #642, .T. ) ;
#874 = LINE ( 'NONE', #162, #621 ) ;
#875 = CARTESIAN_POINT ( 'NONE',  ( -0.1696850393700787274, 0.08759842519685039075, 0.1492125984251968518 ) ) ;
#876 = DIRECTION ( 'NONE',  ( 1.206764157201260003E-16, -1.000000000000000000, 0.000000000000000000 ) ) ;
#877 = ORIENTED_EDGE ( 'NONE', *, *, #749, .T. ) ;
#878 = ADVANCED_FACE ( 'NONE', ( #883 ), #803, .F. ) ;
#879 = DIRECTION ( 'NONE',  ( 0.000000000000000000, -1.000000000000000000, 0.000000000000000000 ) ) ;
#880 = CARTESIAN_POINT ( 'NONE',  ( -0.2047244094488189226, -1.316753953749338653E-17, 0.000000000000000000 ) ) ;
#881 = DIRECTION ( 'NONE',  ( 1.206764157201260003E-16, -1.000000000000000000, 0.000000000000000000 ) ) ;
#882 = VERTEX_POINT ( 'NONE', #332 ) ;
#883 = FACE_OUTER_BOUND ( 'NONE', #814, .T. ) ;
#884 = EDGE_CURVE ( 'NONE', #316, #781, #108, .T. ) ;
#885 = LINE ( 'NONE', #68, #645 ) ;
#886 = ORIENTED_EDGE ( 'NONE', *, *, #234, .F. ) ;
#887 = FACE_OUTER_BOUND ( 'NONE', #835, .T. ) ;
#888 = CARTESIAN_POINT ( 'NONE',  ( 0.01476377952755905665, -5.482254442052560096E-18, 0.05019685039370079538 ) ) ;
#889 = PLANE ( 'NONE',  #864 ) ;
#890 = ORIENTED_EDGE ( 'NONE', *, *, #744, .T. ) ;
#891 = CLOSED_SHELL ( 'NONE', ( #33, #878, #672, #393, #204, #44 ) ) ;
#892 =( NAMED_UNIT ( * ) SI_UNIT ( $, .STERADIAN. ) SOLID_ANGLE_UNIT ( ) );
#893 = DIRECTION ( 'NONE',  ( 0.000000000000000000, 0.000000000000000000, -1.000000000000000000 ) ) ;
#894 = AXIS2_PLACEMENT_3D ( 'NONE', #235, #250, #387 ) ;
#895 = LINE ( 'NONE', #131, #847 ) ;
#896 = EDGE_CURVE ( 'NONE', #385, #781, #836, .T. ) ;
#897 = MECHANICAL_DESIGN_GEOMETRIC_PRESENTATION_REPRESENTATION (  '', ( #344 ), #411 ) ;
#898 = ORIENTED_EDGE ( 'NONE', *, *, #124, .T. ) ;
#899 = DIRECTION ( 'NONE',  ( -1.206764157201260003E-16, 1.000000000000000000, 0.000000000000000000 ) ) ;
#900 = CARTESIAN_POINT ( 'NONE',  ( -0.08523622047244096278, -5.482254442052560096E-18, 0.06003937007874016185 ) ) ;
#901 = ADVANCED_FACE ( 'NONE', ( #887 ), #323, .T. ) ;
#902 = ORIENTED_EDGE ( 'NONE', *, *, #642, .F. ) ;
#903 = CARTESIAN_POINT ( 'NONE',  ( -0.1696850393700787274, 0.08759842519685039075, 0.1496062992125984370 ) ) ;
#904 = LINE ( 'NONE', #272, #433 ) ;
#905 = ORIENTED_EDGE ( 'NONE', *, *, #210, .T. ) ;
#906 = CARTESIAN_POINT ( 'NONE',  ( -0.2283464566929133688, -0.01968503937007873988, 0.000000000000000000 ) ) ;
#907 = CARTESIAN_POINT ( 'NONE',  ( 0.01476377952755905665, -5.482254442052560096E-18, 0.06003937007874016185 ) ) ;
#908 = VECTOR ( 'NONE', #343, 39.37007874015748143 ) ;
#909 = ORIENTED_EDGE ( 'NONE', *, *, #512, .T. ) ;
ENDSEC;
END-ISO-10303-21;
